<?xml version="1.0" encoding="UTF-8"?>
<!DOCTYPE svg PUBLIC "-//W3C//DTD SVG 1.1//EN" "http://www.w3.org/Graphics/SVG/1.1/DTD/svg11.dtd">
<!-- Creator: CorelDRAW Home & Student 2014 -->
<svg xmlns="http://www.w3.org/2000/svg" xml:space="preserve" width="8000px" height="8000px" version="1.1" style="shape-rendering:geometricPrecision; text-rendering:geometricPrecision; image-rendering:optimizeQuality; fill-rule:evenodd; clip-rule:evenodd"
viewBox="0 0 7997 7997"
 xmlns:xlink="http://www.w3.org/1999/xlink">
 <defs>
  <style type="text/css">
   <![CDATA[
    .str0 {stroke:#003DCC;stroke-width:77.2727;stroke-linejoin:round}
    .fil0 {fill:#003DCC}
    .fil1 {fill:white}
   ]]>
  </style>
 </defs>
 <g id="Ebene_x0020_1">
  <metadata id="CorelCorpID_0Corel-Layer"/>
  <path class="fil0 str0" d="M985 39l6027 0c522,0 946,403 946,899l0 6120c0,497 -424,900 -946,900l-6027 0c-522,0 -946,-403 -946,-900l0 -6120c0,-496 424,-899 946,-899z"/>
  <path class="fil1" d="M2741 7377c-28,-9 -59,-19 -87,-28 -72,-22 -144,-47 -216,-72 -22,-9 -41,-15 -63,-22 -18,-9 -40,-18 -62,-28 -16,-6 -34,-12 -50,-22 -19,-6 -34,-15 -53,-22 -28,-15 -56,-31 -84,-40 -10,-3 -16,-10 -25,-13 -4,0 -7,-3 -7,-3 -12,-9 -25,-15 -40,-22 -13,-6 -22,-9 -35,-18 -3,-4 -6,-4 -9,-7 -19,-9 -38,-18 -53,-31 -16,-9 -35,-19 -50,-28 -6,-6 -16,-9 -22,-16 -3,-3 -6,-3 -9,-6 -19,-6 -32,-19 -47,-31 -10,-6 -19,-13 -28,-19 -16,-9 -32,-19 -44,-28 -9,-9 -22,-16 -31,-25 -19,-19 -44,-28 -60,-50 0,0 -3,-3 -3,-3 -22,-9 -34,-34 -56,-47 -6,-3 -9,-9 -16,-16 -22,-18 -40,-37 -59,-59 -6,-3 -13,-9 -16,-16 -6,-9 -12,-15 -18,-21 -13,-13 -19,-25 -29,-38 -12,-16 -25,-31 -37,-47 -16,-25 -34,-50 -50,-75 -19,-34 -34,-65 -50,-100 -41,-90 -69,-184 -72,-284 0,-25 0,-47 0,-72 3,-81 19,-156 44,-228 9,-22 16,-41 25,-62 9,-19 22,-38 28,-57 9,-15 19,-31 28,-50 13,-15 22,-34 34,-53 7,-6 10,-12 13,-18 0,0 0,0 3,0 13,-13 22,-29 31,-41 75,-94 160,-175 253,-247 41,-31 85,-59 125,-90 7,-4 16,-7 19,-16 -3,-6 -6,-9 -9,-16 -16,-31 -32,-65 -44,-100 -22,-62 -37,-128 -44,-197 -3,-59 0,-118 10,-174 12,-57 22,-113 31,-169 9,-53 19,-110 28,-163 6,-40 12,-81 19,-121 6,-41 15,-79 22,-116 6,-31 9,-63 15,-91 6,-43 13,-84 22,-128 3,-31 9,-62 16,-90 6,-41 12,-82 18,-122 7,-35 13,-69 19,-103 6,-38 13,-78 19,-116 9,-44 16,-90 25,-134 0,-3 0,-10 0,-16 -6,3 -13,3 -19,6 -34,16 -69,32 -103,50 -109,54 -222,107 -331,160 -81,40 -163,78 -244,118 -87,41 -172,85 -256,125 -44,19 -87,41 -131,63 -81,41 -163,78 -244,119 -44,21 -90,34 -140,28 -19,-3 -38,-10 -57,-13 -6,-3 -12,-6 -21,-9 -22,-13 -41,-28 -54,-50 -25,-34 -21,-75 0,-103 7,-10 13,-16 19,-25 19,-19 31,-35 47,-50 3,-3 4,-4 9,-10 41,-40 78,-78 116,-115 94,-100 191,-197 284,-297 66,-69 135,-137 200,-203 131,-137 263,-272 394,-409 56,-60 115,-119 175,-181 6,-7 12,-13 19,-22 -4,-7 -7,-10 -10,-16 -65,-84 -122,-172 -175,-266 -44,-74 -84,-156 -115,-237 -28,-66 -50,-131 -69,-200 -13,-50 -25,-100 -31,-150 0,-19 -3,-34 -7,-50 0,-19 -3,-37 -3,-56 -3,-31 -6,-59 -3,-91 0,-43 3,-90 6,-134 7,-62 19,-122 35,-181 12,-53 31,-106 53,-160 12,-37 31,-74 50,-109 19,-40 44,-78 65,-115 25,-41 54,-82 82,-119 15,-22 34,-41 50,-63 12,-12 25,-25 37,-40 35,-44 78,-81 116,-119 12,-12 22,-22 34,-31 16,-10 28,-25 47,-38 12,-6 22,-18 31,-28 10,-6 19,-12 25,-19 44,-31 63,-40 119,-59 69,-25 141,-34 216,-28 81,3 159,28 228,72 34,22 65,44 100,69 78,62 143,131 203,206 6,9 15,18 25,31 6,6 9,12 15,19 3,6 10,12 13,18 3,7 6,10 9,13 3,2 14,19 16,22 12,19 25,34 37,53 6,9 10,19 16,28 0,0 0,0 0,0 3,3 3,6 6,9 6,10 13,22 19,32 3,6 6,9 6,12 25,44 50,88 75,131 44,85 84,169 125,257 22,50 44,100 62,153 0,3 0,6 0,9 10,12 19,25 35,25 9,3 22,3 31,3 6,0 13,-3 22,-3 75,-9 150,-16 225,-25 53,-3 109,-9 165,-12 41,-4 79,-4 119,-7 85,-6 166,-9 247,-12 53,0 106,0 159,0 113,0 228,0 344,3 37,0 72,0 109,3 41,3 85,6 128,6 60,7 116,10 172,13 13,0 22,0 35,0 40,3 81,6 125,12 28,3 59,6 90,13 10,0 19,3 31,0 4,-10 10,-16 16,-25 19,-41 34,-81 50,-119 16,-34 28,-72 41,-103 31,-66 62,-128 96,-191 13,-25 22,-46 38,-71 3,-4 3,-10 6,-13 3,-6 6,-9 10,-16 0,0 0,-3 3,-6 6,-9 9,-15 15,-25 22,-37 44,-72 66,-106 62,-97 131,-184 212,-262 3,-4 7,-7 10,-10 12,-12 25,-22 37,-31 56,-50 119,-91 185,-125 50,-25 103,-41 156,-47 56,-6 109,-6 165,3 69,13 138,38 194,81 44,32 93,68 130,102 72,63 89,92 148,161 66,78 125,162 175,250 47,81 81,162 112,250 16,53 32,106 41,162 13,63 22,122 22,184 0,10 0,19 0,29 3,12 3,25 3,37 -3,38 -3,75 -6,113 -6,50 -13,96 -22,143 -9,41 -19,85 -31,128 -13,41 -28,78 -41,122 -22,53 -44,103 -69,153 -31,63 -62,122 -100,181 -59,97 -125,191 -200,282 -93,118 -196,231 -306,337 -9,13 -22,22 -34,34 -3,7 -6,10 -6,19 3,10 6,22 6,35 12,59 22,121 31,184 10,40 16,84 22,125 6,34 13,72 19,106 15,91 31,181 47,275 12,62 22,128 34,194 13,65 22,131 34,196 7,38 13,79 19,116 10,47 16,94 25,141 10,50 16,96 25,146 6,44 16,88 22,132 6,47 16,90 22,134 3,72 0,144 -16,212 -12,69 -37,132 -68,194 -4,10 -7,16 -13,22 9,6 16,9 22,16 50,34 100,71 150,109 81,69 159,141 225,225 37,47 72,97 103,150 3,6 6,9 9,15 3,4 3,10 3,13 25,44 44,87 60,134 15,57 28,113 31,169 0,22 3,47 3,69 0,59 -9,118 -25,178 -22,94 -62,181 -115,259 -63,100 -138,184 -225,263 -110,100 -232,184 -363,256 -100,59 -206,112 -315,156 -97,41 -194,78 -294,109 -78,28 -156,50 -234,69 -66,19 -132,34 -197,50 -59,12 -119,25 -178,34 -69,13 -138,25 -210,35 -53,6 -103,12 -156,18 -59,7 -118,13 -175,16 -59,3 -118,9 -175,13 -31,0 -62,0 -93,3 -94,3 -188,3 -285,3 -65,-3 -134,-6 -200,-10 -40,0 -81,-3 -118,-6 -44,-3 -88,-6 -128,-9 -47,-3 -97,-10 -144,-16 -53,-6 -106,-12 -156,-22 -41,-3 -82,-12 -122,-18 -56,-10 -109,-19 -166,-32 -50,-9 -100,-21 -147,-34 -59,-12 -115,-28 -175,-44 -6,-3 -9,-3 -12,-3m2202 -4342c-28,3 -53,6 -81,3 -34,-6 -62,-16 -90,-38 -35,-22 -53,-56 -50,-97 0,-37 0,-78 0,-115 0,-6 0,-13 -3,-19 -7,3 -13,3 -19,6 -22,10 -47,22 -69,32 -84,34 -169,68 -253,106 -84,34 -166,72 -250,106 -59,25 -122,28 -184,3 -47,-15 -78,-50 -91,-100 0,-9 -6,-19 -9,-31 -6,-25 -13,-47 -19,-69 -25,-90 -50,-184 -78,-275 -3,-12 -3,-22 -9,-31 -10,-3 -16,3 -22,6 -41,19 -78,38 -119,57 -50,25 -100,46 -150,71 -53,25 -106,53 -159,78 -41,19 -78,38 -119,60 -50,22 -97,47 -144,69 -84,40 -168,81 -253,121 -81,41 -165,82 -250,122 -34,16 -72,35 -106,50 -16,6 -22,16 -22,31 -6,32 -12,63 -19,97 -12,72 -25,144 -37,213 -13,78 -25,156 -38,234 -9,56 -18,113 -28,169 -9,40 -15,81 -22,125 -6,25 -9,50 -12,75 -6,40 -12,78 -22,118 -3,32 -9,60 -15,91 -10,59 -22,122 -32,181 -6,44 -12,85 -22,125 -6,50 -15,97 -25,144 0,16 -3,31 -3,47 -6,62 -3,122 13,181 6,19 9,41 22,59 6,-3 12,-6 18,-9 41,-16 82,-34 122,-53 81,-35 166,-69 250,-97 60,-19 119,-37 178,-56 56,-16 113,-31 169,-44 41,-12 84,-22 125,-31 50,-10 100,-19 150,-31 40,-7 78,-13 119,-19 46,-6 90,-13 137,-22 34,-3 66,-9 100,-13 41,-3 78,-6 119,-12 97,-9 193,-13 290,-19 32,-3 66,-3 97,-3 50,-3 100,-3 150,-3 63,0 128,3 194,3 9,0 19,0 28,0 16,0 28,-3 44,-3 15,0 28,3 43,3 75,6 147,9 219,16 59,6 119,12 178,18 19,0 41,4 63,7 6,0 15,3 21,3 41,6 82,9 122,15 38,7 78,16 119,22 38,7 75,13 109,19 63,16 125,28 191,44 84,22 169,44 253,72 16,3 34,9 50,15 12,7 25,13 34,16 32,9 60,19 88,28 75,22 150,50 225,78 31,13 65,28 93,47 0,0 4,0 7,0 3,-6 6,-13 9,-19 9,-31 16,-62 19,-94 3,-28 6,-56 6,-81 -3,-40 -9,-75 -16,-112 -9,-60 -18,-119 -28,-175 -12,-63 -22,-125 -31,-188 -12,-68 -25,-137 -37,-206 -13,-75 -25,-147 -38,-222 -6,-46 -15,-90 -22,-134 -12,-59 -22,-122 -31,-181 -12,-63 -22,-128 -34,-194 -13,-72 -25,-144 -38,-215 -12,-82 -28,-163 -40,-244 -13,-66 -25,-134 -47,-197 -28,-78 -66,-150 -110,-219 -3,-3 -6,-6 -9,-9 -6,0 -13,3 -16,6 -15,7 -28,16 -43,25 -103,60 -207,122 -310,181 -134,82 -268,160 -403,241 -31,16 -59,31 -97,41m-834 3199c-50,0 -97,0 -146,3 -79,3 -157,6 -235,15 -56,4 -109,10 -165,16 -91,9 -182,22 -272,41 -97,15 -194,37 -288,68 -65,19 -128,44 -187,75 -34,16 -69,38 -97,66 -16,13 -28,28 -40,44 -19,37 -19,75 0,109 12,19 24,34 40,47 22,22 50,41 75,56 47,25 94,44 141,60 100,37 203,62 306,84 172,34 343,56 518,69 63,6 125,9 188,9 78,6 156,6 234,9 63,0 125,0 188,-3 40,0 84,-3 125,-3 81,-3 162,-9 243,-15 53,-7 107,-10 160,-16 90,-9 181,-25 271,-41 91,-15 185,-37 272,-65 69,-19 138,-44 200,-78 38,-16 69,-38 100,-63 19,-16 34,-34 44,-56 15,-31 15,-63 0,-94 -10,-22 -25,-40 -44,-56 -22,-19 -47,-34 -72,-50 -47,-25 -93,-47 -143,-66 -82,-28 -163,-50 -244,-68 -100,-22 -197,-38 -297,-54 -94,-12 -187,-21 -281,-28 -78,-6 -153,-12 -228,-15 -72,0 -144,-3 -216,-3 -50,0 -97,0 -150,3m919 -594c44,-15 81,-40 109,-78 63,-84 56,-209 -19,-284 -78,-78 -193,-88 -281,-25 -72,50 -103,118 -93,206 6,50 28,97 68,131 60,56 131,72 216,50m-1390 -319c-10,-18 -25,-34 -41,-49 -47,-44 -106,-63 -169,-57 -56,7 -103,28 -140,69 -44,50 -63,106 -57,172 7,56 29,103 69,137 50,44 106,63 172,60 100,-10 187,-97 197,-197 3,-47 -6,-91 -31,-135z"/>
  <path class="fil1" d="M3150 4106c-22,-9 -43,-19 -68,-28 -4,-3 -7,-3 -7,-3 -6,-9 -15,-9 -25,-16 -31,-22 -62,-43 -87,-68 -53,-53 -91,-113 -116,-178 -19,-50 -28,-104 -31,-157 0,0 0,0 0,-9 3,0 9,0 16,0 6,0 15,0 21,0 94,0 185,0 278,0 16,0 25,0 35,0 222,0 440,0 659,0 9,0 1,0 32,0 1,12 0,21 -1,28 0,56 -12,106 -34,156 -44,103 -116,181 -213,238 -53,28 -106,47 -162,59 -62,9 -125,13 -187,3 -38,-3 -72,-12 -110,-25l0 0z"/>
  <path class="fil1" d="M5247 3647c12,0 21,0 31,0 93,0 187,0 281,0 9,0 25,0 31,0 1,18 0,22 0,31 -15,172 -100,303 -250,391 -34,18 -68,31 -103,43 -12,4 -22,7 -34,10 -72,15 -144,19 -219,9 -87,-12 -169,-47 -240,-100 -82,-59 -141,-140 -172,-237 -13,-38 -19,-78 -22,-116 0,-9 -1,-16 0,-31 15,0 9,0 15,0 7,0 16,0 22,0 210,0 419,0 628,0 10,0 19,0 32,0z"/>
  <path class="fil1" d="M3075 4075c0,0 3,0 3,3 0,0 0,0 -3,-3z"/>
 </g>
</svg>
